<mxfile host="app.diagrams.net" agent="Mozilla/5.0 (X11; Ubuntu; Linux x86_64; rv:137.0) Gecko/20100101 Firefox/137.0" version="26.2.13">
  <diagram name="第 1 页" id="8bq4_UwM5E43GT9bmZcQ">
    <mxGraphModel dx="3551" dy="1365" grid="1" gridSize="10" guides="1" tooltips="1" connect="1" arrows="1" fold="1" page="0" pageScale="1" pageWidth="827" pageHeight="1169" math="0" shadow="0">
      <root>
        <mxCell id="0" />
        <mxCell id="1" parent="0" />
        <mxCell id="ysk7YN8ltUxfCjNkq8kX-31" value="" style="edgeStyle=orthogonalEdgeStyle;rounded=0;orthogonalLoop=1;jettySize=auto;html=1;" parent="1" source="ysk7YN8ltUxfCjNkq8kX-1" target="ysk7YN8ltUxfCjNkq8kX-4" edge="1">
          <mxGeometry relative="1" as="geometry" />
        </mxCell>
        <mxCell id="ysk7YN8ltUxfCjNkq8kX-1" value="视频" style="rounded=1;whiteSpace=wrap;html=1;" parent="1" vertex="1">
          <mxGeometry x="-711" y="90" width="120" height="60" as="geometry" />
        </mxCell>
        <mxCell id="ysk7YN8ltUxfCjNkq8kX-58" value="" style="edgeStyle=orthogonalEdgeStyle;rounded=0;orthogonalLoop=1;jettySize=auto;html=1;entryX=0.5;entryY=0;entryDx=0;entryDy=0;" parent="1" source="ysk7YN8ltUxfCjNkq8kX-4" target="ysk7YN8ltUxfCjNkq8kX-5" edge="1">
          <mxGeometry relative="1" as="geometry">
            <mxPoint x="-650" y="290" as="targetPoint" />
          </mxGeometry>
        </mxCell>
        <mxCell id="ysk7YN8ltUxfCjNkq8kX-4" value="抽帧" style="shape=parallelogram;perimeter=parallelogramPerimeter;whiteSpace=wrap;html=1;fixedSize=1;" parent="1" vertex="1">
          <mxGeometry x="-711" y="260" width="120" height="60" as="geometry" />
        </mxCell>
        <mxCell id="ysk7YN8ltUxfCjNkq8kX-9" value="" style="edgeStyle=orthogonalEdgeStyle;rounded=0;orthogonalLoop=1;jettySize=auto;html=1;" parent="1" source="ysk7YN8ltUxfCjNkq8kX-5" target="ysk7YN8ltUxfCjNkq8kX-10" edge="1">
          <mxGeometry relative="1" as="geometry" />
        </mxCell>
        <mxCell id="ysk7YN8ltUxfCjNkq8kX-62" style="edgeStyle=orthogonalEdgeStyle;rounded=0;orthogonalLoop=1;jettySize=auto;html=1;" parent="1" source="ysk7YN8ltUxfCjNkq8kX-5" target="ysk7YN8ltUxfCjNkq8kX-12" edge="1">
          <mxGeometry relative="1" as="geometry" />
        </mxCell>
        <mxCell id="ysk7YN8ltUxfCjNkq8kX-5" value="校正畸变" style="shape=parallelogram;perimeter=parallelogramPerimeter;whiteSpace=wrap;html=1;fixedSize=1;" parent="1" vertex="1">
          <mxGeometry x="-711" y="370" width="120" height="60" as="geometry" />
        </mxCell>
        <mxCell id="ysk7YN8ltUxfCjNkq8kX-56" value="" style="edgeStyle=orthogonalEdgeStyle;rounded=0;orthogonalLoop=1;jettySize=auto;html=1;" parent="1" source="ysk7YN8ltUxfCjNkq8kX-8" target="ysk7YN8ltUxfCjNkq8kX-55" edge="1">
          <mxGeometry relative="1" as="geometry" />
        </mxCell>
        <mxCell id="ysk7YN8ltUxfCjNkq8kX-8" value="&lt;div&gt;构建所有帧&lt;/div&gt;&lt;div&gt;相机参数&lt;/div&gt;" style="shape=parallelogram;perimeter=parallelogramPerimeter;whiteSpace=wrap;html=1;fixedSize=1;" parent="1" vertex="1">
          <mxGeometry x="-840" y="660" width="120" height="60" as="geometry" />
        </mxCell>
        <mxCell id="ysk7YN8ltUxfCjNkq8kX-54" value="" style="edgeStyle=orthogonalEdgeStyle;rounded=0;orthogonalLoop=1;jettySize=auto;html=1;" parent="1" source="ysk7YN8ltUxfCjNkq8kX-10" target="ysk7YN8ltUxfCjNkq8kX-53" edge="1">
          <mxGeometry relative="1" as="geometry" />
        </mxCell>
        <mxCell id="ysk7YN8ltUxfCjNkq8kX-10" value="去除背景" style="shape=parallelogram;perimeter=parallelogramPerimeter;whiteSpace=wrap;html=1;fixedSize=1;" parent="1" vertex="1">
          <mxGeometry x="-711" y="660" width="120" height="60" as="geometry" />
        </mxCell>
        <mxCell id="ysk7YN8ltUxfCjNkq8kX-60" value="" style="edgeStyle=orthogonalEdgeStyle;rounded=0;orthogonalLoop=1;jettySize=auto;html=1;" parent="1" source="ysk7YN8ltUxfCjNkq8kX-12" target="ysk7YN8ltUxfCjNkq8kX-59" edge="1">
          <mxGeometry relative="1" as="geometry" />
        </mxCell>
        <mxCell id="ysk7YN8ltUxfCjNkq8kX-12" value="生成mask" style="shape=parallelogram;perimeter=parallelogramPerimeter;whiteSpace=wrap;html=1;fixedSize=1;" parent="1" vertex="1">
          <mxGeometry x="-482" y="660" width="120" height="60" as="geometry" />
        </mxCell>
        <mxCell id="ysk7YN8ltUxfCjNkq8kX-28" value="" style="edgeStyle=orthogonalEdgeStyle;rounded=0;orthogonalLoop=1;jettySize=auto;html=1;" parent="1" source="ysk7YN8ltUxfCjNkq8kX-14" target="ysk7YN8ltUxfCjNkq8kX-27" edge="1">
          <mxGeometry relative="1" as="geometry" />
        </mxCell>
        <mxCell id="ysk7YN8ltUxfCjNkq8kX-14" value="&lt;div&gt;NeuS2生成模型&lt;/div&gt;&lt;div&gt;0.66h/120&lt;/div&gt;" style="shape=process;whiteSpace=wrap;html=1;backgroundOutline=1;" parent="1" vertex="1">
          <mxGeometry x="-770" y="1022" width="120" height="60" as="geometry" />
        </mxCell>
        <mxCell id="ysk7YN8ltUxfCjNkq8kX-22" value="" style="edgeStyle=orthogonalEdgeStyle;rounded=0;orthogonalLoop=1;jettySize=auto;html=1;" parent="1" source="ysk7YN8ltUxfCjNkq8kX-17" target="ysk7YN8ltUxfCjNkq8kX-21" edge="1">
          <mxGeometry relative="1" as="geometry" />
        </mxCell>
        <mxCell id="ysk7YN8ltUxfCjNkq8kX-17" value="旋转模型" style="shape=parallelogram;perimeter=parallelogramPerimeter;whiteSpace=wrap;html=1;fixedSize=1;" parent="1" vertex="1">
          <mxGeometry x="-770" y="1252" width="120" height="60" as="geometry" />
        </mxCell>
        <mxCell id="ysk7YN8ltUxfCjNkq8kX-26" value="" style="edgeStyle=orthogonalEdgeStyle;rounded=0;orthogonalLoop=1;jettySize=auto;html=1;" parent="1" source="ysk7YN8ltUxfCjNkq8kX-21" target="ysk7YN8ltUxfCjNkq8kX-25" edge="1">
          <mxGeometry relative="1" as="geometry" />
        </mxCell>
        <mxCell id="ysk7YN8ltUxfCjNkq8kX-21" value="生成变形图dataset" style="shape=parallelogram;perimeter=parallelogramPerimeter;whiteSpace=wrap;html=1;fixedSize=1;" parent="1" vertex="1">
          <mxGeometry x="-770" y="1379" width="120" height="60" as="geometry" />
        </mxCell>
        <mxCell id="ysk7YN8ltUxfCjNkq8kX-30" value="" style="edgeStyle=orthogonalEdgeStyle;rounded=0;orthogonalLoop=1;jettySize=auto;html=1;" parent="1" source="ysk7YN8ltUxfCjNkq8kX-25" target="ysk7YN8ltUxfCjNkq8kX-29" edge="1">
          <mxGeometry relative="1" as="geometry" />
        </mxCell>
        <mxCell id="ysk7YN8ltUxfCjNkq8kX-25" value="&lt;div&gt;训练变形图&lt;/div&gt;&lt;div&gt;3.5h/120&lt;/div&gt;" style="shape=process;whiteSpace=wrap;html=1;backgroundOutline=1;" parent="1" vertex="1">
          <mxGeometry x="-770" y="1505" width="120" height="60" as="geometry" />
        </mxCell>
        <mxCell id="ysk7YN8ltUxfCjNkq8kX-52" value="" style="edgeStyle=orthogonalEdgeStyle;rounded=0;orthogonalLoop=1;jettySize=auto;html=1;entryX=0.5;entryY=0;entryDx=0;entryDy=0;" parent="1" source="ysk7YN8ltUxfCjNkq8kX-27" target="ysk7YN8ltUxfCjNkq8kX-17" edge="1">
          <mxGeometry relative="1" as="geometry">
            <mxPoint x="-650" y="1392" as="targetPoint" />
          </mxGeometry>
        </mxCell>
        <mxCell id="ysk7YN8ltUxfCjNkq8kX-27" value="obj模型" style="rounded=1;whiteSpace=wrap;html=1;" parent="1" vertex="1">
          <mxGeometry x="-770" y="1132" width="120" height="60" as="geometry" />
        </mxCell>
        <mxCell id="ysk7YN8ltUxfCjNkq8kX-42" value="" style="edgeStyle=orthogonalEdgeStyle;rounded=0;orthogonalLoop=1;jettySize=auto;html=1;" parent="1" source="ysk7YN8ltUxfCjNkq8kX-29" target="ysk7YN8ltUxfCjNkq8kX-41" edge="1">
          <mxGeometry relative="1" as="geometry" />
        </mxCell>
        <mxCell id="ysk7YN8ltUxfCjNkq8kX-29" value="导出变形图json" style="shape=parallelogram;perimeter=parallelogramPerimeter;whiteSpace=wrap;html=1;fixedSize=1;" parent="1" vertex="1">
          <mxGeometry x="-770" y="1632" width="120" height="60" as="geometry" />
        </mxCell>
        <mxCell id="ysk7YN8ltUxfCjNkq8kX-46" value="" style="edgeStyle=orthogonalEdgeStyle;rounded=0;orthogonalLoop=1;jettySize=auto;html=1;" parent="1" source="ysk7YN8ltUxfCjNkq8kX-32" target="ysk7YN8ltUxfCjNkq8kX-45" edge="1">
          <mxGeometry relative="1" as="geometry" />
        </mxCell>
        <mxCell id="ysk7YN8ltUxfCjNkq8kX-32" value="对高斯应用变形图" style="shape=process;whiteSpace=wrap;html=1;backgroundOutline=1;" parent="1" vertex="1">
          <mxGeometry x="-670" y="1892" width="120" height="60" as="geometry" />
        </mxCell>
        <mxCell id="ysk7YN8ltUxfCjNkq8kX-40" value="" style="edgeStyle=orthogonalEdgeStyle;rounded=0;orthogonalLoop=1;jettySize=auto;html=1;" parent="1" source="ysk7YN8ltUxfCjNkq8kX-37" target="ysk7YN8ltUxfCjNkq8kX-38" edge="1">
          <mxGeometry relative="1" as="geometry" />
        </mxCell>
        <mxCell id="ysk7YN8ltUxfCjNkq8kX-37" value="标准高斯训练" style="shape=process;whiteSpace=wrap;html=1;backgroundOutline=1;" parent="1" vertex="1">
          <mxGeometry x="-580" y="1632" width="120" height="60" as="geometry" />
        </mxCell>
        <mxCell id="ysk7YN8ltUxfCjNkq8kX-44" style="edgeStyle=orthogonalEdgeStyle;rounded=0;orthogonalLoop=1;jettySize=auto;html=1;entryX=1;entryY=0.5;entryDx=0;entryDy=0;" parent="1" source="ysk7YN8ltUxfCjNkq8kX-38" target="ysk7YN8ltUxfCjNkq8kX-32" edge="1">
          <mxGeometry relative="1" as="geometry" />
        </mxCell>
        <mxCell id="ysk7YN8ltUxfCjNkq8kX-49" value="" style="edgeStyle=orthogonalEdgeStyle;rounded=0;orthogonalLoop=1;jettySize=auto;html=1;entryX=0.5;entryY=0;entryDx=0;entryDy=0;" parent="1" source="ysk7YN8ltUxfCjNkq8kX-38" target="exBlQTpfm-8-BAnL6OeM-6" edge="1">
          <mxGeometry relative="1" as="geometry">
            <mxPoint x="-550" y="2172" as="targetPoint" />
          </mxGeometry>
        </mxCell>
        <mxCell id="ysk7YN8ltUxfCjNkq8kX-38" value="&lt;div&gt;高斯散点ply&lt;/div&gt;&lt;div&gt;frame0&lt;/div&gt;" style="rounded=1;whiteSpace=wrap;html=1;" parent="1" vertex="1">
          <mxGeometry x="-580" y="1772" width="120" height="60" as="geometry" />
        </mxCell>
        <mxCell id="ysk7YN8ltUxfCjNkq8kX-43" style="edgeStyle=orthogonalEdgeStyle;rounded=0;orthogonalLoop=1;jettySize=auto;html=1;entryX=0;entryY=0.5;entryDx=0;entryDy=0;" parent="1" source="ysk7YN8ltUxfCjNkq8kX-41" target="ysk7YN8ltUxfCjNkq8kX-32" edge="1">
          <mxGeometry relative="1" as="geometry" />
        </mxCell>
        <mxCell id="ysk7YN8ltUxfCjNkq8kX-41" value="变形图json" style="rounded=1;whiteSpace=wrap;html=1;" parent="1" vertex="1">
          <mxGeometry x="-770" y="1772" width="120" height="60" as="geometry" />
        </mxCell>
        <mxCell id="exBlQTpfm-8-BAnL6OeM-12" style="edgeStyle=orthogonalEdgeStyle;rounded=0;orthogonalLoop=1;jettySize=auto;html=1;entryX=0.25;entryY=0;entryDx=0;entryDy=0;" edge="1" parent="1" source="ysk7YN8ltUxfCjNkq8kX-45" target="exBlQTpfm-8-BAnL6OeM-9">
          <mxGeometry relative="1" as="geometry">
            <Array as="points">
              <mxPoint x="-610" y="2230" />
              <mxPoint x="-390" y="2230" />
            </Array>
          </mxGeometry>
        </mxCell>
        <mxCell id="ysk7YN8ltUxfCjNkq8kX-45" value="&lt;div&gt;高斯散点ply&lt;/div&gt;&lt;div&gt;frame&lt;/div&gt;" style="rounded=1;whiteSpace=wrap;html=1;" parent="1" vertex="1">
          <mxGeometry x="-670" y="2012" width="120" height="60" as="geometry" />
        </mxCell>
        <mxCell id="ysk7YN8ltUxfCjNkq8kX-64" style="edgeStyle=orthogonalEdgeStyle;rounded=0;orthogonalLoop=1;jettySize=auto;html=1;" parent="1" source="ysk7YN8ltUxfCjNkq8kX-53" target="ysk7YN8ltUxfCjNkq8kX-14" edge="1">
          <mxGeometry relative="1" as="geometry" />
        </mxCell>
        <mxCell id="ysk7YN8ltUxfCjNkq8kX-66" style="edgeStyle=orthogonalEdgeStyle;rounded=0;orthogonalLoop=1;jettySize=auto;html=1;exitX=0.75;exitY=1;exitDx=0;exitDy=0;entryX=0.25;entryY=0;entryDx=0;entryDy=0;" parent="1" source="ysk7YN8ltUxfCjNkq8kX-53" target="ysk7YN8ltUxfCjNkq8kX-37" edge="1">
          <mxGeometry relative="1" as="geometry" />
        </mxCell>
        <mxCell id="ysk7YN8ltUxfCjNkq8kX-53" value="png图片组" style="rounded=1;whiteSpace=wrap;html=1;" parent="1" vertex="1">
          <mxGeometry x="-711" y="790" width="120" height="60" as="geometry" />
        </mxCell>
        <mxCell id="ysk7YN8ltUxfCjNkq8kX-65" style="edgeStyle=orthogonalEdgeStyle;rounded=0;orthogonalLoop=1;jettySize=auto;html=1;" parent="1" source="ysk7YN8ltUxfCjNkq8kX-55" target="ysk7YN8ltUxfCjNkq8kX-14" edge="1">
          <mxGeometry relative="1" as="geometry" />
        </mxCell>
        <mxCell id="ysk7YN8ltUxfCjNkq8kX-55" value="&lt;div&gt;相机参数组&lt;/div&gt;&lt;div&gt;json&lt;/div&gt;" style="rounded=1;whiteSpace=wrap;html=1;" parent="1" vertex="1">
          <mxGeometry x="-840" y="790" width="120" height="60" as="geometry" />
        </mxCell>
        <mxCell id="ysk7YN8ltUxfCjNkq8kX-69" style="edgeStyle=orthogonalEdgeStyle;rounded=0;orthogonalLoop=1;jettySize=auto;html=1;entryX=0.75;entryY=0;entryDx=0;entryDy=0;" parent="1" source="ysk7YN8ltUxfCjNkq8kX-59" target="ysk7YN8ltUxfCjNkq8kX-37" edge="1">
          <mxGeometry relative="1" as="geometry" />
        </mxCell>
        <mxCell id="ysk7YN8ltUxfCjNkq8kX-59" value="mask图像" style="rounded=1;whiteSpace=wrap;html=1;" parent="1" vertex="1">
          <mxGeometry x="-482" y="790" width="120" height="60" as="geometry" />
        </mxCell>
        <mxCell id="ysk7YN8ltUxfCjNkq8kX-71" value="" style="edgeStyle=orthogonalEdgeStyle;rounded=0;orthogonalLoop=1;jettySize=auto;html=1;exitX=0;exitY=0.5;exitDx=0;exitDy=0;" parent="1" source="ysk7YN8ltUxfCjNkq8kX-5" target="ysk7YN8ltUxfCjNkq8kX-70" edge="1">
          <mxGeometry relative="1" as="geometry">
            <mxPoint x="-701" y="400" as="sourcePoint" />
            <mxPoint x="-760" y="660" as="targetPoint" />
            <Array as="points" />
          </mxGeometry>
        </mxCell>
        <mxCell id="ysk7YN8ltUxfCjNkq8kX-73" value="" style="edgeStyle=orthogonalEdgeStyle;rounded=0;orthogonalLoop=1;jettySize=auto;html=1;" parent="1" source="ysk7YN8ltUxfCjNkq8kX-70" target="ysk7YN8ltUxfCjNkq8kX-72" edge="1">
          <mxGeometry relative="1" as="geometry" />
        </mxCell>
        <mxCell id="ysk7YN8ltUxfCjNkq8kX-70" value="计算内外参" style="shape=parallelogram;perimeter=parallelogramPerimeter;whiteSpace=wrap;html=1;fixedSize=1;" parent="1" vertex="1">
          <mxGeometry x="-840" y="460" width="120" height="60" as="geometry" />
        </mxCell>
        <mxCell id="ysk7YN8ltUxfCjNkq8kX-74" value="" style="edgeStyle=orthogonalEdgeStyle;rounded=0;orthogonalLoop=1;jettySize=auto;html=1;" parent="1" source="ysk7YN8ltUxfCjNkq8kX-72" target="ysk7YN8ltUxfCjNkq8kX-8" edge="1">
          <mxGeometry relative="1" as="geometry" />
        </mxCell>
        <mxCell id="ysk7YN8ltUxfCjNkq8kX-75" style="edgeStyle=orthogonalEdgeStyle;rounded=0;orthogonalLoop=1;jettySize=auto;html=1;" parent="1" source="ysk7YN8ltUxfCjNkq8kX-72" target="ysk7YN8ltUxfCjNkq8kX-37" edge="1">
          <mxGeometry relative="1" as="geometry" />
        </mxCell>
        <mxCell id="ysk7YN8ltUxfCjNkq8kX-72" value="&lt;div&gt;相机内外参&lt;/div&gt;&lt;div&gt;colmap&lt;/div&gt;" style="rounded=1;whiteSpace=wrap;html=1;" parent="1" vertex="1">
          <mxGeometry x="-840" y="550" width="120" height="60" as="geometry" />
        </mxCell>
        <mxCell id="exBlQTpfm-8-BAnL6OeM-1" value="" style="swimlane;startSize=0;" vertex="1" parent="1">
          <mxGeometry x="-995" y="230" width="725" height="700" as="geometry" />
        </mxCell>
        <mxCell id="exBlQTpfm-8-BAnL6OeM-3" value="" style="swimlane;startSize=0;" vertex="1" parent="1">
          <mxGeometry x="-995" y="992" width="725" height="348" as="geometry" />
        </mxCell>
        <mxCell id="exBlQTpfm-8-BAnL6OeM-4" value="" style="swimlane;startSize=0;" vertex="1" parent="1">
          <mxGeometry x="-995" y="1365" width="725" height="605" as="geometry" />
        </mxCell>
        <mxCell id="exBlQTpfm-8-BAnL6OeM-5" value="" style="swimlane;startSize=0;" vertex="1" parent="1">
          <mxGeometry x="-995" y="2440" width="725" height="390" as="geometry">
            <mxRectangle x="-990" y="1990" width="50" height="40" as="alternateBounds" />
          </mxGeometry>
        </mxCell>
        <mxCell id="exBlQTpfm-8-BAnL6OeM-8" value="" style="edgeStyle=orthogonalEdgeStyle;rounded=0;orthogonalLoop=1;jettySize=auto;html=1;" edge="1" parent="1" source="exBlQTpfm-8-BAnL6OeM-6" target="exBlQTpfm-8-BAnL6OeM-7">
          <mxGeometry relative="1" as="geometry" />
        </mxCell>
        <mxCell id="exBlQTpfm-8-BAnL6OeM-6" value="&lt;div&gt;创建高斯图&lt;/div&gt;&lt;div&gt;（边）&lt;/div&gt;" style="shape=parallelogram;perimeter=parallelogramPerimeter;whiteSpace=wrap;html=1;fixedSize=1;" vertex="1" parent="1">
          <mxGeometry x="-420" y="2012" width="120" height="60" as="geometry" />
        </mxCell>
        <mxCell id="exBlQTpfm-8-BAnL6OeM-11" value="" style="edgeStyle=orthogonalEdgeStyle;rounded=0;orthogonalLoop=1;jettySize=auto;html=1;entryX=0.5;entryY=0;entryDx=0;entryDy=0;" edge="1" parent="1" source="exBlQTpfm-8-BAnL6OeM-7" target="exBlQTpfm-8-BAnL6OeM-9">
          <mxGeometry relative="1" as="geometry" />
        </mxCell>
        <mxCell id="exBlQTpfm-8-BAnL6OeM-7" value="&lt;div&gt;高斯图&lt;/div&gt;&lt;div&gt;点，边&lt;/div&gt;" style="rounded=1;whiteSpace=wrap;html=1;" vertex="1" parent="1">
          <mxGeometry x="-420" y="2140" width="120" height="60" as="geometry" />
        </mxCell>
        <mxCell id="exBlQTpfm-8-BAnL6OeM-9" value="非关键帧高斯训练" style="shape=parallelogram;perimeter=parallelogramPerimeter;whiteSpace=wrap;html=1;fixedSize=1;" vertex="1" parent="1">
          <mxGeometry x="-420" y="2300" width="120" height="60" as="geometry" />
        </mxCell>
      </root>
    </mxGraphModel>
  </diagram>
</mxfile>
